<svg xmlns="http://www.w3.org/2000/svg" viewBox="-11.09 -63.99 520 520" version="1.1" id="svg1"><title id="title1">EndeavorOS Logo</title><defs id="defs1" /><g id="main"><g id="g1" transform="matrix(1.0355818,0,0,0.94227725,-15.170226,-54.905802)" style="display:inline"></g><g id="logo" transform="matrix(0.9621625,0,0,0.9160427,10.391998,-32.980622)" style="display:inline"><path id="path1-9" style="display:inline;fill:#ffffff;fill-opacity:0.797857;stroke-width:0.258009;stroke-dasharray:none" d="M 290.23701,41.880128 C 279.36377,41.983149 0.05358616,381.69405 0.06201171,384.69891 17.281299,389.41462 39.580813,393.53657 64.45901,397.15829 44.801578,429.74206 31.342089,452.32707 29.122148,456.05986 204.48741,462.93851 344.399,450.82569 412.59225,442.34189 480.78548,433.85808 606.91845,374.53606 290.23701,41.880128 Z" /><path style="display:inline;fill:#ff0000;fill-opacity:0.5;stroke-width:0.257603" d="M 290.23716,41.88 C 279.36392,41.983022 0.05382664,381.69412 0.06225177,384.699 78.085035,406.06644 257.01788,415.89221 334.88875,416.99736 412.75963,418.10252 548.22949,382.19093 290.23716,41.88 Z" id="path1" /><path style="display:inline;fill:#0000ff;fill-opacity:0.5;stroke-width:0.257603" d="M 290.23716,41.88 C 202.92036,164.0256 37.562169,441.8686 29.122421,456.05988 204.48786,462.93854 344.39931,450.82591 412.59262,442.34209 480.78593,433.85828 606.91893,374.53626 290.23716,41.88 Z" id="path2" /></g></g></svg>
